<svg width="130" height="134" viewBox="0 0 130 134" fill="none" xmlns="http://www.w3.org/2000/svg">
<path d="M65 0L97.4322 16.691L130 33.2463L97.4322 49.9374L65 66.6284L32.5678 49.9374L0 33.2463L32.5678 16.691L65 0Z" fill="#D9AC80"/>
<path d="M105.574 60.9291V45.8665L89.2903 54.1441V69.2067L98.2464 58.2151L105.574 60.9291Z" fill="#D7BAA4"/>
<path d="M65 66.382V133.01L130 99.7641V33L105.574 45.62L105.031 45.8914V60.547L98.2463 57.9687L89.2902 68.9603V53.8977L65 66.382Z" fill="#A67E4F"/>
<path d="M65 133.257V66.6284L32.5678 49.9374L0 33.2463V100.01L65 133.257Z" fill="#926E43"/>
<path d="M24.4259 20.762L89.2902 54.1441L105.031 46.1378L105.574 45.8664L40.7098 12.4844L32.5679 16.6911L24.4259 20.762Z" fill="#F2D3BA"/>
</svg>
