<svg width="20" height="20" viewBox="0 0 20 20" fill="none" xmlns="http://www.w3.org/2000/svg">
<path d="M5.90527 18.3468C6.59563 18.3468 7.15527 17.7872 7.15527 17.0968C7.15527 16.4064 6.59563 15.8468 5.90527 15.8468C5.21492 15.8468 4.65527 16.4064 4.65527 17.0968C4.65527 17.7872 5.21492 18.3468 5.90527 18.3468Z" fill="black"/>
<path d="M13.4995 18.3468C14.1899 18.3468 14.7495 17.7872 14.7495 17.0968C14.7495 16.4064 14.1899 15.8468 13.4995 15.8468C12.8092 15.8468 12.2495 16.4064 12.2495 17.0968C12.2495 17.7872 12.8092 18.3468 13.4995 18.3468Z" fill="black"/>
<path d="M16.8774 3.55239C16.8257 3.48866 16.7605 3.43718 16.6866 3.40163C16.6126 3.36609 16.5317 3.34738 16.4496 3.34684H4.88295L5.24406 4.45795H15.7218L14.2385 11.1246H5.90517L3.36628 3.08572C3.33882 3.00042 3.29113 2.92303 3.22728 2.86015C3.16343 2.79727 3.08532 2.75077 2.99961 2.72461L0.721836 2.02461C0.651798 2.00309 0.578206 1.99557 0.505263 2.00249C0.43232 2.00941 0.361453 2.03063 0.29671 2.06494C0.165956 2.13422 0.0680798 2.25261 0.0246137 2.39406C-0.0188523 2.53551 -0.00434773 2.68843 0.0649365 2.81918C0.134221 2.94994 0.25261 3.04781 0.394058 3.09128L2.3885 3.70239L4.9385 11.7579L4.02739 12.5024L3.95517 12.5746C3.7298 12.8343 3.60206 13.1645 3.59395 13.5083C3.58583 13.852 3.69786 14.1879 3.91073 14.4579C4.06215 14.6421 4.25456 14.7882 4.47258 14.8847C4.6906 14.9812 4.92817 15.0253 5.16628 15.0135H14.4385C14.5858 15.0135 14.7272 14.955 14.8313 14.8508C14.9355 14.7466 14.9941 14.6053 14.9941 14.4579C14.9941 14.3106 14.9355 14.1693 14.8313 14.0651C14.7272 13.9609 14.5858 13.9024 14.4385 13.9024H5.07739C5.01342 13.9002 4.95109 13.8816 4.89642 13.8483C4.84176 13.8149 4.79661 13.7681 4.76533 13.7123C4.73406 13.6564 4.71771 13.5934 4.71788 13.5294C4.71804 13.4654 4.73472 13.4025 4.76628 13.3468L6.10517 12.2357H14.6829C14.8114 12.2389 14.9369 12.1974 15.0382 12.1184C15.1395 12.0394 15.2103 11.9277 15.2385 11.8024L16.9996 4.02461C17.0165 3.94179 17.0143 3.8562 16.9931 3.77437C16.9719 3.69254 16.9323 3.61662 16.8774 3.55239Z" fill="black"/>
</svg>
