<svg width="20" height="20" viewBox="0 0 20 20" fill="none" xmlns="http://www.w3.org/2000/svg">
<rect x="0.5" y="0.5" width="19" height="19" rx="6.5" fill="white" stroke="#D3D3D3"/>
<ellipse cx="9.77345" cy="10" rx="6.4402" ry="6.66667" fill="white"/>
<path d="M10.2275 10L12.8969 7.23667C12.9497 7.1729 12.9773 7.09088 12.9741 7.00699C12.971 6.92309 12.9374 6.84351 12.8801 6.78415C12.8227 6.72478 12.7458 6.69001 12.6648 6.68677C12.5838 6.68353 12.5045 6.71206 12.4429 6.76667L9.77345 9.53L7.10399 6.76334C7.04335 6.70057 6.96111 6.66531 6.87536 6.66531C6.78961 6.66531 6.70737 6.70057 6.64674 6.76334C6.5861 6.8261 6.55204 6.91124 6.55204 7C6.55204 7.08877 6.5861 7.1739 6.64674 7.23667L9.31942 10L6.64674 12.7633C6.61303 12.7932 6.58565 12.83 6.56632 12.8713C6.54699 12.9127 6.53613 12.9577 6.53442 13.0037C6.53271 13.0496 6.54018 13.0953 6.55637 13.1381C6.57256 13.1809 6.59711 13.2197 6.62849 13.2522C6.65988 13.2847 6.6974 13.3101 6.73873 13.3269C6.78005 13.3436 6.82427 13.3514 6.86862 13.3496C6.91297 13.3478 6.95648 13.3366 6.99643 13.3166C7.03638 13.2966 7.0719 13.2682 7.10077 13.2333L9.77345 10.47L12.4429 13.2333C12.5045 13.2879 12.5838 13.3165 12.6648 13.3132C12.7458 13.31 12.8227 13.2752 12.8801 13.2159C12.9374 13.1565 12.971 13.0769 12.9741 12.993C12.9773 12.9091 12.9497 12.8271 12.8969 12.7633L10.2275 10Z" fill="#464646"/>
</svg>
