<svg width="30" height="30" viewBox="0 0 30 30" fill="none" xmlns="http://www.w3.org/2000/svg">
<rect x="0.5" y="0.5" width="29" height="29" rx="9.5" fill="white" stroke="#6B6B6B"/>
<ellipse cx="14.6603" cy="15" rx="9.6603" ry="10" fill="white"/>
<path d="M15.3415 15L19.3457 10.855C19.4248 10.7594 19.4661 10.6363 19.4615 10.5105C19.4568 10.3846 19.4064 10.2653 19.3203 10.1762C19.2343 10.0872 19.119 10.035 18.9974 10.0301C18.8759 10.0253 18.757 10.0681 18.6646 10.15L14.6604 14.295L10.6562 10.145C10.5653 10.0508 10.4419 9.99796 10.3133 9.99796C10.1847 9.99796 10.0613 10.0508 9.97035 10.145C9.87939 10.2392 9.8283 10.3669 9.8283 10.5C9.8283 10.6332 9.87939 10.7608 9.97035 10.855L13.9794 15L9.97035 19.145C9.91979 19.1898 9.87872 19.245 9.84973 19.307C9.82074 19.369 9.80444 19.4366 9.80187 19.5055C9.7993 19.5743 9.81051 19.643 9.8348 19.7072C9.85908 19.7713 9.89591 19.8296 9.94299 19.8783C9.99006 19.9271 10.0464 19.9652 10.1083 19.9903C10.1703 20.0155 10.2367 20.0271 10.3032 20.0244C10.3697 20.0217 10.435 20.0049 10.4949 19.9749C10.5548 19.9449 10.6081 19.9023 10.6514 19.85L14.6604 15.705L18.6646 19.85C18.757 19.9319 18.8759 19.9747 18.9974 19.9699C19.119 19.965 19.2343 19.9128 19.3203 19.8238C19.4064 19.7347 19.4568 19.6154 19.4615 19.4895C19.4661 19.3637 19.4248 19.2407 19.3457 19.145L15.3415 15Z" fill="#6B6B6B"/>
</svg>
