<svg width="232" height="242" viewBox="0 0 232 242" fill="none" xmlns="http://www.w3.org/2000/svg">
<path d="M107.069 80.9332L107.36 116.703L138.34 98.9872L169.462 81.3542L169.172 45.5848L138.192 63.3002L107.069 80.9332Z" fill="#D9AC80"/>
<path d="M107.339 117.071L46.0829 81.7048L107.367 46.455L137.352 63.767L107.07 80.9334L107.361 116.703L107.339 117.071Z" fill="#A67E4F"/>
<path d="M76.2385 134.336L107.361 116.703L107.509 152.39L107.8 188.159L76.677 205.792L76.5292 170.105L76.2385 134.336Z" fill="#D9AC80"/>
<path d="M169.337 79.5272L200.459 61.8942L200.607 97.5811L200.898 133.351L169.775 150.984L169.627 115.297L169.337 79.5272Z" fill="#D9AC80"/>
<path d="M170.044 152.893L169.753 117.124L169.462 81.3544L138.34 98.9874L107.36 116.703L107.508 152.39L107.799 188.159L138.921 170.526L170.044 152.893Z" fill="#643513"/>
<path d="M106.911 116.824L46.0833 81.7048L46.1155 152.546L76.5292 170.105L76.2385 134.336L106.911 116.824Z" fill="#926E43"/>
<path d="M138.921 170.526L107.799 188.159L107.508 152.39L107.457 140.937L128.493 128.904L170.044 152.893L138.921 170.526Z" fill="#8D5122"/>
<path d="M170.044 152.893L128.493 128.904L128.397 104.669L138.341 98.9872L169.463 81.3542L169.754 117.124L170.044 152.893Z" fill="#77411B"/>
</svg>
