<svg width="32" height="32" viewBox="0 0 32 32" fill="none" xmlns="http://www.w3.org/2000/svg">
<rect x="1" y="1" width="30" height="30" rx="6" fill="white" stroke="#FEF0F0" stroke-width="2"/>
<path d="M19.5785 10C20.8275 10 21.8767 10.4058 22.726 11.2174C23.5753 12.029 24 13.0196 24 14.1893C24 14.7621 23.8751 15.341 23.6253 15.9258C23.3755 16.5107 23.1007 17.0298 22.8009 17.4834C22.5012 17.9369 21.9953 18.5217 21.2834 19.2379C20.5714 19.954 19.9719 20.5328 19.4848 20.9744C18.9977 21.416 18.217 22.0904 17.1429 22.9974L15.9813 24L14.8197 23.0332C13.7705 22.1023 12.9961 21.416 12.4965 20.9744C11.9969 20.5328 11.3911 19.954 10.6792 19.2379C9.96721 18.5217 9.46136 17.9369 9.16159 17.4834C8.86183 17.0298 8.59329 16.5107 8.35597 15.9258C8.11866 15.341 8 14.7621 8 14.1893C8 13.0196 8.42467 12.029 9.274 11.2174C10.1233 10.4058 11.16 10 12.3841 10C13.8329 10 15.032 10.5371 15.9813 11.6113C16.9305 10.5371 18.1296 10 19.5785 10ZM16.0562 21.8875C17.2802 20.8372 18.1733 20.0554 18.7354 19.5422C19.2974 19.029 19.9157 18.4143 20.5902 17.6982C21.2646 16.9821 21.733 16.3555 21.9953 15.8184C22.2576 15.2813 22.3888 14.7383 22.3888 14.1893C22.3888 13.4254 22.1202 12.7928 21.5831 12.2916C21.0461 11.7903 20.3778 11.5396 19.5785 11.5396C18.9789 11.5396 18.4106 11.7067 17.8735 12.0409C17.3365 12.3751 16.9555 12.8048 16.7307 13.3299H15.2318C15.032 12.8048 14.6635 12.3751 14.1265 12.0409C13.5894 11.7067 13.0086 11.5396 12.3841 11.5396C11.5847 11.5396 10.9227 11.7903 10.3981 12.2916C9.87354 12.7928 9.61124 13.4254 9.61124 14.1893C9.61124 14.7383 9.73614 15.2813 9.98595 15.8184C10.2358 16.3555 10.7041 16.9821 11.3911 17.6982C12.0781 18.4143 12.7026 19.029 13.2646 19.5422C13.8267 20.0554 14.7073 20.8372 15.9063 21.8875L15.9813 21.9591L16.0562 21.8875Z" fill="#FF8585" fill-opacity="0.7"/>
</svg>
