<svg width="18" height="16" viewBox="0 0 16 14" fill="none" xmlns="http://www.w3.org/2000/svg">
<path d="M11.5785 0C12.8275 0 13.8767 0.405797 14.726 1.21739C15.5753 2.02899 16 3.01961 16 4.18926C16 4.76215 15.8751 5.34101 15.6253 5.92583C15.3755 6.51066 15.1007 7.02984 14.8009 7.48338C14.5012 7.93691 13.9953 8.52174 13.2834 9.23785C12.5714 9.95396 11.9719 10.5328 11.4848 10.9744C10.9977 11.416 10.217 12.0904 9.14286 12.9974L7.98126 14L6.81967 13.0332C5.77049 12.1023 4.9961 11.416 4.49649 10.9744C3.99688 10.5328 3.3911 9.95396 2.67916 9.23785C1.96721 8.52174 1.46136 7.93691 1.16159 7.48338C0.861827 7.02984 0.593286 6.51066 0.355972 5.92583C0.118657 5.34101 0 4.76215 0 4.18926C0 3.01961 0.424668 2.02899 1.274 1.21739C2.12334 0.405797 3.16003 0 4.38407 0C5.83294 0 7.03201 0.537084 7.98126 1.61125C8.93052 0.537084 10.1296 0 11.5785 0ZM8.05621 11.8875C9.28025 10.8372 10.1733 10.0554 10.7354 9.5422C11.2974 9.02899 11.9157 8.41432 12.5902 7.69821C13.2646 6.9821 13.733 6.3555 13.9953 5.81841C14.2576 5.28133 14.3888 4.73828 14.3888 4.18926C14.3888 3.42541 14.1202 2.79284 13.5831 2.29156C13.0461 1.79028 12.3778 1.53964 11.5785 1.53964C10.9789 1.53964 10.4106 1.70673 9.87354 2.04092C9.33646 2.37511 8.9555 2.80477 8.73068 3.32992H7.23185C7.03201 2.80477 6.66354 2.37511 6.12646 2.04092C5.58938 1.70673 5.00859 1.53964 4.38407 1.53964C3.5847 1.53964 2.92272 1.79028 2.39813 2.29156C1.87354 2.79284 1.61124 3.42541 1.61124 4.18926C1.61124 4.73828 1.73614 5.28133 1.98595 5.81841C2.23575 6.3555 2.70414 6.9821 3.3911 7.69821C4.07806 8.41432 4.70258 9.02899 5.26464 9.5422C5.8267 10.0554 6.70726 10.8372 7.90632 11.8875L7.98126 11.9591L8.05621 11.8875Z" fill="#000000" fill-opacity="0.7"/>
</svg>
