<svg width="34" height="35" viewBox="0 0 34 35" fill="none" xmlns="http://www.w3.org/2000/svg">
<path d="M16.7578 0.547607L25.1197 4.85102L33.5166 9.11944L25.1197 13.4228L16.7578 17.7263L8.39592 13.4228L-0.000976562 9.11944L8.39592 4.85102L16.7578 0.547607Z" fill="#D9AC80"/>
<path d="M27.2194 16.2569V12.3733L23.021 14.5075V18.3911L25.3301 15.5571L27.2194 16.2569Z" fill="#D7BAA4"/>
<path d="M16.7578 17.6627V34.8414L33.5166 26.2695V9.05591L27.2189 12.3097L27.079 12.3797V16.1583L25.3296 15.4935L23.0205 18.3275V14.4439L16.7578 17.6627Z" fill="#A67E4F"/>
<path d="M16.7578 34.9049V17.7262L8.39592 13.4228L-0.000976562 9.11938V26.333L16.7578 34.9049Z" fill="#926E43"/>
<path d="M6.29639 5.90057L23.0202 14.5074L27.0787 12.4432L27.2187 12.3732L10.4948 3.76636L8.39561 4.85096L6.29639 5.90057Z" fill="#F2D3BA"/>
</svg>
